<svg width="308" height="61" viewBox="0 0 308 61" fill="none" xmlns="http://www.w3.org/2000/svg">
<path d="M3.88404 56.8776H5.11623V48.2816H8.02068V47.2548H0.979591V48.2816H3.88404V56.8776Z" fill="black"/>
<path d="M9.63622 56.8776H10.8391V51.7142C11.5578 50.9954 12.0566 50.614 12.79 50.614C13.7289 50.614 14.1396 51.1861 14.1396 52.521V56.8776H15.3424V52.3596C15.3424 50.5407 14.6677 49.5725 13.1714 49.5725C12.1886 49.5725 11.4698 50.1006 10.7951 50.746L10.8391 49.2791V46.4334H9.63622V56.8776Z" fill="black"/>
<path d="M20.5051 57.0537C21.4733 57.0537 22.236 56.7163 22.8521 56.3202L22.4267 55.5281C21.8987 55.8655 21.3266 56.0855 20.6518 56.0855C19.2876 56.0855 18.3634 55.1174 18.2754 53.6065H23.0868C23.1162 53.4304 23.1308 53.1664 23.1308 52.917C23.1308 50.878 22.104 49.5725 20.2851 49.5725C18.6568 49.5725 17.0872 50.9954 17.0872 53.3278C17.0872 55.6601 18.5981 57.0537 20.5051 57.0537ZM18.2608 52.741C18.4074 51.3328 19.3169 50.526 20.3144 50.526C21.4292 50.526 22.0747 51.3034 22.0747 52.741H18.2608Z" fill="black"/>
<path d="M29.7068 56.8776H31.1297L34.1808 47.2548H32.9339L31.3937 52.4476C31.0563 53.5918 30.8216 54.5013 30.4696 55.6308H30.4109C30.0442 54.5013 29.8241 53.5918 29.4721 52.4476L27.9318 47.2548H26.6263L29.7068 56.8776Z" fill="black"/>
<path d="M37.936 57.0537C39.6816 57.0537 41.2366 55.6895 41.2366 53.3278C41.2366 50.9367 39.6816 49.5725 37.936 49.5725C36.1904 49.5725 34.6355 50.9367 34.6355 53.3278C34.6355 55.6895 36.1904 57.0537 37.936 57.0537ZM37.936 56.0562C36.7185 56.0562 35.8824 54.956 35.8824 53.3278C35.8824 51.6848 36.7185 50.57 37.936 50.57C39.1682 50.57 39.9897 51.6848 39.9897 53.3278C39.9897 54.956 39.1682 56.0562 37.936 56.0562Z" fill="black"/>
<path d="M43.1141 56.8776H44.3169V49.7485H43.1141V56.8776ZM43.7302 48.2816C44.1996 48.2816 44.5663 47.9589 44.5663 47.5042C44.5663 47.0348 44.1996 46.7267 43.7302 46.7267C43.2608 46.7267 42.894 47.0348 42.894 47.5042C42.894 47.9589 43.2608 48.2816 43.7302 48.2816Z" fill="black"/>
<path d="M49.5404 57.0537C50.3912 57.0537 51.198 56.7163 51.8435 56.1442L51.3154 55.3374C50.8753 55.7335 50.3032 56.0562 49.6431 56.0562C48.3376 56.0562 47.4428 54.956 47.4428 53.3278C47.4428 51.6848 48.3816 50.57 49.6725 50.57C50.2445 50.57 50.6846 50.834 51.0953 51.2008L51.7114 50.4086C51.2127 49.9539 50.5673 49.5725 49.6285 49.5725C47.7948 49.5725 46.1959 50.9367 46.1959 53.3278C46.1959 55.6895 47.6481 57.0537 49.5404 57.0537Z" fill="black"/>
<path d="M55.9885 57.0537C56.9566 57.0537 57.7194 56.7163 58.3355 56.3202L57.9101 55.5281C57.382 55.8655 56.8099 56.0855 56.1352 56.0855C54.7709 56.0855 53.8468 55.1174 53.7588 53.6065H58.5702C58.5995 53.4304 58.6142 53.1664 58.6142 52.917C58.6142 50.878 57.5874 49.5725 55.7684 49.5725C54.1402 49.5725 52.5706 50.9954 52.5706 53.3278C52.5706 55.6601 54.0815 57.0537 55.9885 57.0537ZM53.7441 52.741C53.8908 51.3328 54.8003 50.526 55.7978 50.526C56.9126 50.526 57.558 51.3034 57.558 52.741H53.7441Z" fill="black"/>
<path d="M66.0849 57.0537C67.8306 57.0537 69.3855 55.6895 69.3855 53.3278C69.3855 50.9367 67.8306 49.5725 66.0849 49.5725C64.3393 49.5725 62.7844 50.9367 62.7844 53.3278C62.7844 55.6895 64.3393 57.0537 66.0849 57.0537ZM66.0849 56.0562C64.8674 56.0562 64.0313 54.956 64.0313 53.3278C64.0313 51.6848 64.8674 50.57 66.0849 50.57C67.3171 50.57 68.1386 51.6848 68.1386 53.3278C68.1386 54.956 67.3171 56.0562 66.0849 56.0562Z" fill="black"/>
<path d="M71.4683 56.8776H72.6712V50.7314H74.1821V49.7485H72.6712V48.619C72.6712 47.7095 72.9939 47.2401 73.6687 47.2401C73.9327 47.2401 74.2114 47.2988 74.4755 47.4162L74.7395 46.492C74.4168 46.36 73.9914 46.2573 73.5513 46.2573C72.1284 46.2573 71.4683 47.1668 71.4683 48.619V49.7485L70.5002 49.8219V50.7314H71.4683V56.8776Z" fill="black"/>
<path d="M80.7419 57.0537C82.4581 57.0537 83.8223 56.0415 83.8223 54.3839C83.8223 53.0931 82.9275 52.2716 81.798 52.0075V51.9489C82.8102 51.5675 83.4996 50.8487 83.4996 49.7192C83.4996 48.2083 82.3261 47.3428 80.6978 47.3428C79.5977 47.3428 78.7322 47.8416 78.0134 48.5163L78.6589 49.2791C79.2163 48.7217 79.8764 48.3256 80.6538 48.3256C81.6513 48.3256 82.2674 48.8977 82.2674 49.8072C82.2674 50.79 81.6073 51.5528 79.6123 51.5528V52.477C81.842 52.477 82.6048 53.2251 82.6048 54.3399C82.6048 55.3814 81.798 56.0562 80.6685 56.0562C79.5683 56.0562 78.8349 55.5281 78.2775 54.9413L77.6614 55.7335C78.2921 56.4229 79.2456 57.0537 80.7419 57.0537Z" fill="black"/>
<path d="M85.8917 56.8776H88.3561C91.2605 56.8776 92.8448 55.088 92.8448 52.0222C92.8448 48.9711 91.2605 47.2548 88.2974 47.2548H85.8917V56.8776ZM87.1092 55.8802V48.2523H88.2094C90.4537 48.2523 91.5832 49.6018 91.5832 52.0222C91.5832 54.4573 90.4537 55.8802 88.2094 55.8802H87.1092Z" fill="black"/>
<path d="M97.8532 56.8776H99.0707V53.0637H100.655C102.767 53.0637 104.205 52.1102 104.205 50.0859C104.205 47.9736 102.753 47.2548 100.596 47.2548H97.8532V56.8776ZM99.0707 52.0662V48.2376H100.45C102.137 48.2376 102.987 48.6924 102.987 50.0859C102.987 51.4501 102.181 52.0662 100.508 52.0662H99.0707Z" fill="black"/>
<path d="M106.044 56.8776H107.247V52.3009C107.731 51.0981 108.45 50.658 109.052 50.658C109.345 50.658 109.506 50.702 109.741 50.7754L109.976 49.7192C109.741 49.6165 109.521 49.5725 109.213 49.5725C108.406 49.5725 107.673 50.1446 107.189 51.0394H107.145L107.042 49.7485H106.044V56.8776Z" fill="black"/>
<path d="M111.13 56.8776H112.333V49.7485H111.13V56.8776ZM111.746 48.2816C112.215 48.2816 112.582 47.9589 112.582 47.5042C112.582 47.0348 112.215 46.7267 111.746 46.7267C111.277 46.7267 110.91 47.0348 110.91 47.5042C110.91 47.9589 111.277 48.2816 111.746 48.2816Z" fill="black"/>
<path d="M114.74 56.8776H115.943V51.7142C116.661 50.9954 117.16 50.614 117.894 50.614C118.832 50.614 119.243 51.1861 119.243 52.521V56.8776H120.446V52.3596C120.446 50.5407 119.771 49.5725 118.275 49.5725C117.292 49.5725 116.559 50.1006 115.884 50.7754H115.84L115.737 49.7485H114.74V56.8776Z" fill="black"/>
<path d="M125.006 57.0537C125.446 57.0537 125.93 56.9216 126.326 56.7896L126.092 55.8802C125.857 55.9682 125.534 56.0708 125.285 56.0708C124.463 56.0708 124.185 55.5721 124.185 54.692V50.7314H126.106V49.7485H124.185V47.7536H123.173L123.026 49.7485L121.911 49.8219V50.7314H122.967V54.6773C122.967 56.0855 123.481 57.0537 125.006 57.0537Z" fill="black"/>
<path d="M127.718 56.8776H128.921V49.7485H127.718V56.8776ZM128.334 48.2816C128.804 48.2816 129.171 47.9589 129.171 47.5042C129.171 47.0348 128.804 46.7267 128.334 46.7267C127.865 46.7267 127.498 47.0348 127.498 47.5042C127.498 47.9589 127.865 48.2816 128.334 48.2816Z" fill="black"/>
<path d="M131.328 56.8776H132.531V51.7142C133.25 50.9954 133.749 50.614 134.482 50.614C135.421 50.614 135.832 51.1861 135.832 52.521V56.8776H137.035V52.3596C137.035 50.5407 136.36 49.5725 134.863 49.5725C133.881 49.5725 133.147 50.1006 132.472 50.7754H132.428L132.326 49.7485H131.328V56.8776Z" fill="black"/>
<path d="M141.756 60.1635C143.971 60.1635 145.365 59.0193 145.365 57.6991C145.365 56.5109 144.529 55.9975 142.871 55.9975H141.492C140.524 55.9975 140.23 55.6748 140.23 55.22C140.23 54.824 140.436 54.5893 140.685 54.3692C141.008 54.5306 141.404 54.6186 141.756 54.6186C143.208 54.6186 144.367 53.6651 144.367 52.1396C144.367 51.5381 144.118 50.9954 143.78 50.6727H145.247V49.7485H142.768C142.504 49.6459 142.152 49.5725 141.756 49.5725C140.304 49.5725 139.072 50.5553 139.072 52.1102C139.072 52.961 139.526 53.6505 139.996 54.0319V54.0905C139.629 54.3399 139.218 54.8093 139.218 55.4107C139.218 55.9682 139.497 56.3496 139.849 56.5696V56.6283C139.204 57.0683 138.808 57.6404 138.808 58.2418C138.808 59.474 140.01 60.1635 141.756 60.1635ZM141.756 53.8118C140.935 53.8118 140.245 53.1517 140.245 52.1102C140.245 51.0687 140.92 50.4526 141.756 50.4526C142.592 50.4526 143.267 51.0687 143.267 52.1102C143.267 53.1517 142.578 53.8118 141.756 53.8118ZM141.932 59.3274C140.641 59.3274 139.864 58.8433 139.864 58.0805C139.864 57.6698 140.084 57.2444 140.597 56.8776C140.905 56.9657 141.243 56.995 141.521 56.995H142.754C143.678 56.995 144.191 57.215 144.191 57.8751C144.191 58.6232 143.296 59.3274 141.932 59.3274Z" fill="black"/>
<path d="M148.623 59.2247H149.503L153.419 46.4627H152.539L148.623 59.2247Z" fill="black"/>
<path d="M159.519 51.4941C159.871 50.4233 160.179 49.3671 160.472 48.2523H160.531C160.839 49.3671 161.147 50.4233 161.499 51.4941L161.954 52.961H159.064L159.519 51.4941ZM156.585 56.8776H157.832L158.756 53.9438H162.262L163.171 56.8776H164.477L161.22 47.2548H159.841L156.585 56.8776Z" fill="black"/>
<path d="M168.158 57.0537C168.994 57.0537 169.757 56.5843 170.314 56.0415H170.358L170.461 56.8776H171.459V46.4334H170.241V49.1764L170.3 50.394C169.669 49.8806 169.126 49.5725 168.305 49.5725C166.676 49.5725 165.21 51.0101 165.21 53.3278C165.21 55.7041 166.368 57.0537 168.158 57.0537ZM168.422 56.0415C167.175 56.0415 166.456 55.0147 166.456 53.3131C166.456 51.6848 167.366 50.5847 168.51 50.5847C169.097 50.5847 169.64 50.79 170.241 51.3328V55.0587C169.654 55.7188 169.082 56.0415 168.422 56.0415Z" fill="black"/>
<path d="M176.295 57.0537C177.131 57.0537 177.894 56.5843 178.451 56.0415H178.495L178.598 56.8776H179.595V46.4334H178.378V49.1764L178.436 50.394C177.806 49.8806 177.263 49.5725 176.441 49.5725C174.813 49.5725 173.346 51.0101 173.346 53.3278C173.346 55.7041 174.505 57.0537 176.295 57.0537ZM176.559 56.0415C175.312 56.0415 174.593 55.0147 174.593 53.3131C174.593 51.6848 175.503 50.5847 176.647 50.5847C177.233 50.5847 177.776 50.79 178.378 51.3328V55.0587C177.791 55.7188 177.219 56.0415 176.559 56.0415Z" fill="black"/>
<path d="M181.996 56.8776H183.199V49.7485H181.996V56.8776ZM182.612 48.2816C183.082 48.2816 183.449 47.9589 183.449 47.5042C183.449 47.0348 183.082 46.7267 182.612 46.7267C182.143 46.7267 181.776 47.0348 181.776 47.5042C181.776 47.9589 182.143 48.2816 182.612 48.2816Z" fill="black"/>
<path d="M187.851 57.0537C188.291 57.0537 188.775 56.9216 189.171 56.7896L188.936 55.8802C188.701 55.9682 188.379 56.0708 188.129 56.0708C187.308 56.0708 187.029 55.5721 187.029 54.692V50.7314H188.951V49.7485H187.029V47.7536H186.017L185.87 49.7485L184.755 49.8219V50.7314H185.812V54.6773C185.812 56.0855 186.325 57.0537 187.851 57.0537Z" fill="black"/>
<path d="M190.563 56.8776H191.766V49.7485H190.563V56.8776ZM191.179 48.2816C191.648 48.2816 192.015 47.9589 192.015 47.5042C192.015 47.0348 191.648 46.7267 191.179 46.7267C190.709 46.7267 190.343 47.0348 190.343 47.5042C190.343 47.9589 190.709 48.2816 191.179 48.2816Z" fill="black"/>
<path d="M195.713 56.8776H197.121L199.644 49.7485H198.456L197.106 53.7972C196.901 54.5013 196.666 55.22 196.461 55.8948H196.402C196.182 55.22 195.948 54.5013 195.742 53.7972L194.393 49.7485H193.146L195.713 56.8776Z" fill="black"/>
<path d="M203.853 57.0537C204.821 57.0537 205.584 56.7163 206.2 56.3202L205.774 55.5281C205.246 55.8655 204.674 56.0855 203.999 56.0855C202.635 56.0855 201.711 55.1174 201.623 53.6065H206.434C206.464 53.4304 206.478 53.1664 206.478 52.917C206.478 50.878 205.451 49.5725 203.633 49.5725C202.004 49.5725 200.435 50.9954 200.435 53.3278C200.435 55.6601 201.946 57.0537 203.853 57.0537ZM201.608 52.741C201.755 51.3328 202.664 50.526 203.662 50.526C204.777 50.526 205.422 51.3034 205.422 52.741H201.608Z" fill="black"/>
<path d="M211.294 56.8776H212.394V51.5822C212.394 50.7314 212.306 49.5872 212.247 48.7364H212.306L213.069 50.922L214.888 55.9095H215.695L217.514 50.922L218.276 48.7364H218.335C218.276 49.5872 218.174 50.7314 218.174 51.5822V56.8776H219.318V47.2548H217.836L216.017 52.3889C215.783 53.049 215.592 53.7385 215.357 54.3986H215.299C215.064 53.7385 214.844 53.049 214.609 52.3889L212.761 47.2548H211.294V56.8776Z" fill="black"/>
<path d="M223.477 57.0537C224.372 57.0537 225.164 56.5843 225.839 56.0268H225.883L225.986 56.8776H226.983V52.5063C226.983 50.7314 226.25 49.5725 224.504 49.5725C223.36 49.5725 222.363 50.0712 221.703 50.4966L222.172 51.3328C222.729 50.9514 223.477 50.57 224.299 50.57C225.472 50.57 225.766 51.4501 225.766 52.3596C222.729 52.697 221.394 53.4744 221.394 55.0294C221.394 56.3055 222.289 57.0537 223.477 57.0537ZM223.829 56.0855C223.125 56.0855 222.568 55.7481 222.568 54.9413C222.568 54.0319 223.389 53.4451 225.766 53.1517V55.132C225.076 55.7481 224.519 56.0855 223.829 56.0855Z" fill="black"/>
<path d="M229.226 56.8776H230.429V51.7142C231.148 50.9954 231.647 50.614 232.38 50.614C233.319 50.614 233.73 51.1861 233.73 52.521V56.8776H234.932V52.3596C234.932 50.5407 234.258 49.5725 232.761 49.5725C231.779 49.5725 231.045 50.1006 230.37 50.7754H230.326L230.224 49.7485H229.226V56.8776Z" fill="black"/>
<path d="M239.331 57.0537C240.314 57.0537 241.018 56.5403 241.678 55.7628H241.722L241.825 56.8776H242.823V49.7485H241.62V54.8093C240.945 55.6454 240.432 56.0122 239.698 56.0122C238.759 56.0122 238.363 55.4401 238.363 54.1052V49.7485H237.146V54.2666C237.146 56.0855 237.82 57.0537 239.331 57.0537Z" fill="black"/>
<path d="M245.433 56.8776H246.636V50.7314H248.147V49.7485H246.636V48.619C246.636 47.7095 246.958 47.2401 247.633 47.2401C247.897 47.2401 248.176 47.2988 248.44 47.4162L248.704 46.492C248.381 46.36 247.956 46.2573 247.516 46.2573C246.093 46.2573 245.433 47.1668 245.433 48.619V49.7485L244.465 49.8219V50.7314H245.433V56.8776Z" fill="black"/>
<path d="M250.867 57.0537C251.762 57.0537 252.554 56.5843 253.229 56.0268H253.273L253.375 56.8776H254.373V52.5063C254.373 50.7314 253.64 49.5725 251.894 49.5725C250.75 49.5725 249.752 50.0712 249.092 50.4966L249.562 51.3328C250.119 50.9514 250.867 50.57 251.689 50.57C252.862 50.57 253.155 51.4501 253.155 52.3596C250.119 52.697 248.784 53.4744 248.784 55.0294C248.784 56.3055 249.679 57.0537 250.867 57.0537ZM251.219 56.0855C250.515 56.0855 249.958 55.7481 249.958 54.9413C249.958 54.0319 250.779 53.4451 253.155 53.1517V55.132C252.466 55.7481 251.909 56.0855 251.219 56.0855Z" fill="black"/>
<path d="M259.432 57.0537C260.283 57.0537 261.09 56.7163 261.735 56.1442L261.207 55.3374C260.767 55.7335 260.195 56.0562 259.535 56.0562C258.23 56.0562 257.335 54.956 257.335 53.3278C257.335 51.6848 258.274 50.57 259.564 50.57C260.137 50.57 260.577 50.834 260.987 51.2008L261.603 50.4086C261.105 49.9539 260.459 49.5725 259.52 49.5725C257.687 49.5725 256.088 50.9367 256.088 53.3278C256.088 55.6895 257.54 57.0537 259.432 57.0537Z" fill="black"/>
<path d="M265.407 57.0537C265.847 57.0537 266.331 56.9216 266.727 56.7896L266.492 55.8802C266.258 55.9682 265.935 56.0708 265.686 56.0708C264.864 56.0708 264.585 55.5721 264.585 54.692V50.7314H266.507V49.7485H264.585V47.7536H263.573L263.427 49.7485L262.312 49.8219V50.7314H263.368V54.6773C263.368 56.0855 263.881 57.0537 265.407 57.0537Z" fill="black"/>
<path d="M270.202 57.0537C271.185 57.0537 271.889 56.5403 272.549 55.7628H272.593L272.696 56.8776H273.693V49.7485H272.49V54.8093C271.816 55.6454 271.302 56.0122 270.569 56.0122C269.63 56.0122 269.234 55.4401 269.234 54.1052V49.7485H268.016V54.2666C268.016 56.0855 268.691 57.0537 270.202 57.0537Z" fill="black"/>
<path d="M276.098 56.8776H277.301V52.3009C277.785 51.0981 278.504 50.658 279.105 50.658C279.399 50.658 279.56 50.702 279.795 50.7754L280.029 49.7192C279.795 49.6165 279.575 49.5725 279.267 49.5725C278.46 49.5725 277.726 50.1446 277.242 51.0394H277.198L277.096 49.7485H276.098V56.8776Z" fill="black"/>
<path d="M281.184 56.8776H282.386V49.7485H281.184V56.8776ZM281.8 48.2816C282.269 48.2816 282.636 47.9589 282.636 47.5042C282.636 47.0348 282.269 46.7267 281.8 46.7267C281.33 46.7267 280.964 47.0348 280.964 47.5042C280.964 47.9589 281.33 48.2816 281.8 48.2816Z" fill="black"/>
<path d="M284.793 56.8776H285.996V51.7142C286.715 50.9954 287.214 50.614 287.947 50.614C288.886 50.614 289.297 51.1861 289.297 52.521V56.8776H290.5V52.3596C290.5 50.5407 289.825 49.5725 288.329 49.5725C287.346 49.5725 286.612 50.1006 285.938 50.7754H285.894L285.791 49.7485H284.793V56.8776Z" fill="black"/>
<path d="M295.221 60.1635C297.436 60.1635 298.83 59.0193 298.83 57.6991C298.83 56.5109 297.994 55.9975 296.336 55.9975H294.957C293.989 55.9975 293.696 55.6748 293.696 55.22C293.696 54.824 293.901 54.5893 294.15 54.3692C294.473 54.5306 294.869 54.6186 295.221 54.6186C296.674 54.6186 297.832 53.6651 297.832 52.1396C297.832 51.5381 297.583 50.9954 297.246 50.6727H298.713V49.7485H296.233C295.969 49.6459 295.617 49.5725 295.221 49.5725C293.769 49.5725 292.537 50.5553 292.537 52.1102C292.537 52.961 292.992 53.6505 293.461 54.0319V54.0905C293.094 54.3399 292.684 54.8093 292.684 55.4107C292.684 55.9682 292.962 56.3496 293.314 56.5696V56.6283C292.669 57.0683 292.273 57.6404 292.273 58.2418C292.273 59.474 293.476 60.1635 295.221 60.1635ZM295.221 53.8118C294.4 53.8118 293.71 53.1517 293.71 52.1102C293.71 51.0687 294.385 50.4526 295.221 50.4526C296.057 50.4526 296.732 51.0687 296.732 52.1102C296.732 53.1517 296.043 53.8118 295.221 53.8118ZM295.397 59.3274C294.106 59.3274 293.329 58.8433 293.329 58.0805C293.329 57.6698 293.549 57.2444 294.062 56.8776C294.37 56.9657 294.708 56.995 294.987 56.995H296.219C297.143 56.995 297.656 57.215 297.656 57.8751C297.656 58.6232 296.762 59.3274 295.397 59.3274Z" fill="black"/>
<mask id="mask0" mask-type="alpha" maskUnits="userSpaceOnUse" x="1" y="0" width="40" height="35">
<path fill-rule="evenodd" clip-rule="evenodd" d="M1.0002 0.114258H40.0988V34.5768H1.0002V0.114258Z" fill="white"/>
</mask>
<g mask="url(#mask0)">
<path fill-rule="evenodd" clip-rule="evenodd" d="M1.12314 11.8546H10.8885V9.22623C10.8885 8.48728 11.045 7.693 12.1948 7.693H28.0277C28.9291 7.693 30.0661 7.70732 30.0661 9.36997V11.8546C30.0661 12.347 29.648 13.004 27.9754 13.004H16.323V20.8342H28.5505C28.5505 20.8342 30.6408 20.9843 30.6408 22.9009V24.2834C30.6408 25.173 30.3014 26.2 28.8117 26.2H12.5083C12.5083 26.2 10.8885 26.2 10.8885 24.8312V21.7648H1.01235V27.4591C1.01235 27.4591 0.22839 34.5769 11.2543 34.5769H34.142C35.4087 34.5769 40.0988 34.0296 40.0988 28.7735V21.4022C40.0988 19.6022 38.479 16.9467 35.1866 16.9467C38.5313 16.0705 39.7594 13.1685 39.7594 11.9914C39.7594 10.2527 39.7561 7.37489 39.7561 5.68458C39.7561 3.99377 39.0192 0.114258 34.1415 0.114258H6.81217C3.31097 0.114258 1.12219 1.9167 1.12219 5.66729C1.12219 11.0331 1.12314 11.8546 1.12314 11.8546" fill="black"/>
</g>
<path fill-rule="evenodd" clip-rule="evenodd" d="M78.4681 20.5291C78.4681 23.287 76.3755 25.5222 73.7936 25.5222H55.0056V8.68111H73.7936C76.3755 8.68111 78.4681 10.9168 78.4681 13.6742V20.5291ZM78.7871 0H45.1438V34.5768H78.7871C84.0321 34.5768 88.2843 30.0352 88.2843 24.4322V10.1446C88.2843 4.54205 84.0321 0 78.7871 0V0Z" fill="black"/>
<path fill-rule="evenodd" clip-rule="evenodd" d="M108.707 15.8317C108.707 16.779 107.984 17.5475 107.091 17.5475H97.9791V12.0678H107.091C107.984 12.0678 108.707 12.8358 108.707 13.783V15.8317ZM110.235 7.56396H92.2974V27.0134H97.9626L97.9791 22.5194H110.235C112.518 22.5194 114.369 20.5546 114.369 18.1313V11.9516C114.369 9.52833 112.518 7.56396 110.235 7.56396V7.56396Z" fill="black"/>
<path fill-rule="evenodd" clip-rule="evenodd" d="M133.124 17.5401H123.102V12.0641H133.124C134.023 12.0641 134.752 12.8316 134.752 13.7787V15.8256C134.752 16.7727 134.023 17.5401 133.124 17.5401M138.549 19.3244C138.453 19.2764 140.356 18.4012 140.454 16.9596V11.9487C140.454 9.52652 138.59 7.56396 136.291 7.56396H117.379V26.9999H123.085L123.102 22.509H133.826C134.394 23.0673 134.375 23.9017 134.375 23.9017V26.9999L140.159 27.0134C140.159 27.0134 140.074 23.3757 140.074 21.6617C140.074 19.9466 139.255 19.6732 138.549 19.3244" fill="black"/>
<path fill-rule="evenodd" clip-rule="evenodd" d="M142.461 27.0134H148.48V7.56396H142.461V27.0134Z" fill="black"/>
<path fill-rule="evenodd" clip-rule="evenodd" d="M171.32 7.56396V22.405L161.172 7.56396H156.742H156.259H150.487V27.0134H156.742V12.068L167.051 27.0134H171.32H172.246H174.447H177.575V7.56396H171.32Z" fill="black"/>
<path fill-rule="evenodd" clip-rule="evenodd" d="M289.328 7.56396H288.856H284.536L278.905 19.8313L273.274 7.56396H268.954H268.482H262.853V27.0134H268.954V12.068L276.646 27.0134H277.005H281.257L288.856 12.068V27.0134H294.957V7.56396H289.328Z" fill="black"/>
<path fill-rule="evenodd" clip-rule="evenodd" d="M201.654 7.56396H178.578V12.483H187.099V27.0134H193.133V12.483H201.654V7.56396Z" fill="black"/>
<path fill-rule="evenodd" clip-rule="evenodd" d="M198.644 28.094H204.663V22.6914H198.644V28.094Z" fill="#ED1C24"/>
<path fill-rule="evenodd" clip-rule="evenodd" d="M253.9 20.4648C253.9 21.8804 252.798 23.0276 251.439 23.0276H241.962C240.602 23.0276 239.5 21.8804 239.5 20.4648V15.0936C239.5 13.6779 240.602 12.5302 241.962 12.5302H251.439C252.798 12.5302 253.9 13.6779 253.9 15.0936V20.4648ZM254.222 7.56396H239.379C236.274 7.56396 233.758 10.1853 233.758 13.418V22.2399C233.758 25.4731 236.274 28.0939 239.379 28.0939H254.222C257.327 28.0939 259.843 25.4731 259.843 22.2399V13.418C259.843 10.1853 257.327 7.56396 254.222 7.56396V7.56396Z" fill="black"/>
<path fill-rule="evenodd" clip-rule="evenodd" d="M225.83 20.0284V20.4648C225.83 21.8805 224.732 23.0277 223.377 23.0277H215.847C214.493 23.0277 213.395 21.8805 213.395 20.4648V15.0936C213.395 13.678 214.493 12.5302 215.847 12.5302H223.377C224.711 12.5302 225.791 13.6445 225.824 15.0296H231.752V13.418C231.752 10.1853 229.244 7.56396 226.151 7.56396H213.274C210.18 7.56396 207.673 10.1853 207.673 13.418V22.2399C207.673 25.4731 210.18 28.0939 213.274 28.0939H226.151C229.244 28.0939 231.752 25.4731 231.752 22.2399V20.0284H225.83Z" fill="black"/>
<path d="M298.589 14.0471V8.79696H296.964V7.56396H301.558V8.79696H299.933V14.0471H298.589Z" fill="black"/>
<path d="M302.48 14.0471V7.56396H303.942L304.895 10.4476C304.956 10.6398 305.013 10.8387 305.068 11.0442C305.122 11.2431 305.18 11.4419 305.24 11.6408H305.277C305.337 11.4419 305.392 11.2431 305.44 11.0442C305.494 10.8387 305.552 10.6398 305.612 10.4476L306.547 7.56396H308V14.0471H306.784V11.6706C306.784 11.5115 306.79 11.3359 306.802 11.1436C306.814 10.9514 306.829 10.7591 306.847 10.5669C306.865 10.368 306.883 10.1758 306.902 9.99017C306.92 9.79793 306.938 9.62227 306.956 9.46317H306.92L306.439 11.0044L305.594 13.4803H304.859L304.015 11.0044L303.543 9.46317H303.506C303.524 9.62227 303.543 9.79793 303.561 9.99017C303.579 10.1758 303.597 10.368 303.615 10.5669C303.633 10.7591 303.649 10.9514 303.661 11.1436C303.673 11.3359 303.679 11.5115 303.679 11.6706V14.0471H302.48Z" fill="black"/>
</svg>
