<svg xmlns="http://www.w3.org/2000/svg" viewBox="0 0 512 512">
  <path fill="#4285F4" d="M256 411.12L0 202.667 256 0l256 202.667z"/>
  <path fill="#356AC3" d="M121.037 194.667L256 411.12l134.963-216.453-134.963 69.333z"/>
  <path fill="#A0C3FF" d="M256 411.12c-23.253 0-42.667-19.414-42.667-42.667s19.414-42.667 42.667-42.667 42.667 19.414 42.667 42.667-19.414 42.667-42.667 42.667z"/>
  <path fill="#76A7FA" d="M256 325.787c-23.253 0-42.667 19.413-42.667 42.666 0 23.254 19.414 42.667 42.667 42.667s42.667-19.413 42.667-42.667c0-23.253-19.414-42.666-42.667-42.666z"/>
  <ellipse fill="#A0C3FF" cx="256" cy="362" rx="42.667" ry="42.667"/>
  <path fill="#4285F4" d="M256 512c-79.529 0-149.333-44.373-185.6-109.227l54.827-34.56C149.12 421.973 200.107 448 256 448c55.893 0 106.88-26.027 130.773-79.787l54.827 34.56C405.333 467.627 335.529 512 256 512z"/>
  <path fill="#356AC3" d="M441.6 402.773l-54.827-34.56C362.88 421.973 311.893 448 256 448v64c79.529 0 149.333-44.373 185.6-109.227z"/>
</svg>
